<svg xmlns="http://www.w3.org/2000/svg" viewBox="0 0 20 20"><title>icons</title><path d="M17.31,14.9119A2.9985,2.9985,0,0,0,15,10H14.8542l-0.3834-.7667A4.9726,4.9726,0,0,0,13,3.0149V3A3,3,0,0,0,7,3V3.0149A4.9725,4.9725,0,0,0,5.5292,9.2333L5.1458,10H5a2.9985,2.9985,0,0,0-2.31,4.9119l-0.3732.7464a3,3,0,0,0,5.3657,2.6854L8.8542,16h2.2915l1.1708,2.3417A2.9868,2.9868,0,0,0,15.001,20a3,3,0,0,0,2.6824-4.3417ZM15,12a0.9994,0.9994,0,0,1,1,1,0.9821,0.9821,0,0,1-.3848.7693L14.739,12H15ZM4.999,18a1,1,0,0,1-.8936-1.4473L4.8818,15H7.1182L5.8945,17.4473A1,1,0,0,1,4.999,18ZM10,14H5a1,1,0,0,1,0-2h5.2747l0.9905,2H10Zm5.4473,3.8945a1,1,0,0,1-1.3418-.4473L12.3818,14H12.3813l-1.39-2.8066-0.01.005L10.3635,9.9633A2.9511,2.9511,0,0,1,10,10a2.9511,2.9511,0,0,1-.3635-0.0367L9.1182,11H6.8818L7.8436,9.0766A2.98,2.98,0,0,1,9,4.1843V3a1,1,0,0,1,2,0V4.1843a2.98,2.98,0,0,1,1.1564,4.8923L13.6182,12h0.0047l1.8234,3.6816,0.01-.005,0.438,0.8761A1,1,0,0,1,15.4473,17.8945Z"/><circle cx="10" cy="7" r="1"/></svg>