<?xml version="1.0" standalone="no"?>
<!DOCTYPE svg PUBLIC "-//W3C//DTD SVG 20010904//EN"
 "http://www.w3.org/TR/2001/REC-SVG-20010904/DTD/svg10.dtd">
<svg version="1.0" xmlns="http://www.w3.org/2000/svg"
 width="700.000000pt" height="700.000000pt" viewBox="0 0 700.000000 700.000000"
 preserveAspectRatio="xMidYMid meet">
<metadata>
Created by potrace 1.11, written by Peter Selinger 2001-2013
</metadata>
<g transform="translate(0.000000,700.000000) scale(0.100000,-0.100000)"
fill="#000000" stroke="none">
<path d="M3515 6483 c-11 -2 -42 -8 -70 -13 -27 -6 -59 -12 -71 -14 -78 -15
-228 -79 -524 -223 -107 -52 -247 -120 -310 -150 -415 -198 -1912 -952 -1976
-995 -172 -115 -321 -298 -372 -458 -42 -129 -29 -407 25 -543 16 -39 17 -33
-33 -267 -3 -14 -7 -36 -10 -50 -3 -14 -25 -122 -49 -240 -39 -194 -48 -246
-61 -360 -2 -19 -6 -55 -9 -80 -6 -45 -8 -77 -21 -270 -9 -158 -12 -530 -3
-570 4 -19 10 -52 13 -72 9 -58 60 -190 101 -260 114 -194 321 -380 495 -445
55 -21 83 -27 190 -42 53 -8 207 -6 260 3 14 2 71 11 128 20 57 8 107 18 112
21 5 3 39 -21 77 -53 343 -293 736 -479 1238 -587 284 -60 568 -89 895 -89
163 0 427 10 485 19 17 2 55 7 85 10 67 7 249 34 270 40 16 5 63 14 95 19 11
2 38 8 60 14 22 6 51 13 65 16 34 6 212 59 280 84 155 56 215 81 330 138 226
111 412 230 555 354 155 135 266 267 355 421 33 57 60 108 60 114 0 5 7 23 15
39 17 32 58 176 70 241 21 122 23 338 4 480 -4 33 -10 85 -14 115 -8 74 -49
293 -75 410 -12 52 -24 106 -26 119 -3 13 -6 28 -7 34 -1 6 16 20 38 32 84 45
182 100 248 137 38 21 70 38 73 38 21 0 166 111 229 174 157 160 218 309 240
588 8 107 -60 311 -138 416 -30 40 -93 107 -133 142 -79 70 -73 66 -909 490
-231 117 -546 277 -700 355 -1193 607 -1250 634 -1376 670 -61 17 -173 32
-204 28z"/>
</g>
</svg>
