<?xml version="1.0" encoding="utf-8"?>
<!-- Generator: Adobe Illustrator 19.2.1, SVG Export Plug-In . SVG Version: 6.00 Build 0)  -->
<!DOCTYPE svg PUBLIC "-//W3C//DTD SVG 1.1//EN" "http://www.w3.org/Graphics/SVG/1.1/DTD/svg11.dtd">
<svg version="1.1" id="Layer_1" xmlns="http://www.w3.org/2000/svg" xmlns:xlink="http://www.w3.org/1999/xlink" x="0px" y="0px"
	 viewBox="0 0 310 310" enable-background="new 0 0 310 310" xml:space="preserve">
<rect fill="none" width="310" height="310"/>
<path d="M286.08,84.46c13.55,6.16,21.2,15.9,22.92,29.21c0,16.27-6.66,28.1-19.97,35.5l-17.01,9.24
	c4.19,16.52,6.29,30.45,6.29,41.78c0,21.69-11.59,39.93-34.76,54.72c-23.17,14.79-51.64,22.18-85.41,22.18
	c-42.4,0-75.31-10.85-98.72-32.54c-0.74,0.25-1.79,0.5-3.14,0.74c-1.36,0.25-4.25,0.68-8.69,1.29c-4.44,0.62-8.63,0.55-12.57-0.19
	c-7.89-0.74-15.53-5.23-22.92-13.5C4.7,224.66,1,215.23,1,204.63c0-21.45,1.48-38.33,4.44-50.66l4.81-23.29
	c-1.98-4.19-2.96-10.35-2.96-18.49c0-5.92,2.22-11.71,6.66-17.38c4.44-5.67,9.86-10.11,16.27-13.31
	c55.46-27.85,89.85-44.86,103.16-51.03c10.35-5.18,18.42-7.7,24.22-7.58c5.79,0.13,13.13,2.65,22,7.58L286.08,84.46z"/>
<path fill="#FFFFFF" d="M272.03,119.96c3.2-1.48,4.81-3.26,4.81-5.36c0-2.09-1.61-3.88-4.81-5.36
	c-64.58-33.03-98.97-50.53-103.16-52.5c-6.66-3.2-13.31-3.2-19.97,0l-103.16,52.5c-3.21,1.48-4.81,3.27-4.81,5.36
	c0,2.1,1.6,3.88,4.81,5.36l2.96,1.48c-3.21,8.13-6.29,19.47-9.24,34.02c-2.96,15.29-4.44,31.19-4.44,47.7c0,3.7,1.23,6.66,3.7,8.87
	c2.46,2.22,5.3,3.33,8.5,3.33h1.48c7.15,0,10.72-4.07,10.72-12.2c0-1.48-0.5-7.21-1.48-17.19c-0.99-9.98-1.48-19.16-1.48-27.55
	c0-12.81,1.48-23.05,4.44-30.69l88,44.74c7.15,3.46,14.29,3.46,21.45,0L272.03,119.96z"/>
<path fill="#FFFFFF" d="M159.62,244.57c25.14,0,46.34-4.5,63.6-13.5c17.25-9,25.88-19.78,25.88-32.35l-6.29-43.26l-66.18,32.17
	c-12.08,4.93-23.42,4.93-34.02,0l-64.71-32.17l-7.39,43.26c0,13.07,8.63,23.98,25.88,32.72
	C113.65,240.19,134.72,244.57,159.62,244.57z"/>
</svg>
