<?xml version="1.0" standalone="no"?>
<!DOCTYPE svg PUBLIC "-//W3C//DTD SVG 20010904//EN"
 "http://www.w3.org/TR/2001/REC-SVG-20010904/DTD/svg10.dtd">
<svg version="1.0" xmlns="http://www.w3.org/2000/svg"
 width="260.000000pt" height="260.000000pt" viewBox="0 0 260.000000 260.000000"
 preserveAspectRatio="xMidYMid meet">
<metadata>
Created by potrace 1.11, written by Peter Selinger 2001-2013
</metadata>
<g transform="translate(0.000000,260.000000) scale(0.100000,-0.100000)"
fill="#000000" stroke="none">
<path d="M1219 2393 c-41 -13 -286 -130 -545 -258 -424 -211 -476 -239 -522
-286 -81 -82 -107 -182 -77 -299 10 -36 9 -49 -16 -168 -36 -178 -47 -280 -45
-432 1 -134 3 -149 27 -200 37 -78 111 -153 183 -185 63 -28 143 -33 231 -17
38 7 44 5 110 -44 117 -86 234 -140 382 -178 185 -47 482 -53 673 -16 30 6 66
14 80 16 51 10 177 56 242 89 200 99 329 232 374 384 23 78 23 185 -2 341 -2
14 -10 51 -18 82 l-13 58 41 22 c22 13 58 32 80 43 168 87 235 276 150 422
-48 82 -59 88 -864 493 -151 75 -286 141 -299 145 -51 16 -101 12 -172 -12z"/>
</g>
</svg>
