<svg xmlns="http://www.w3.org/2000/svg" version="1.1" xmlns:xlink="http://www.w3.org/1999/xlink">
	<!-- DNA -->
    <symbol id="icon-dna" viewBox="0 0 20 20">
		<path d="M18 3c0-1.65-.85-3-2.5-3a2.37 2.37 0 0 0-2.38 2H6.88A2.37 2.37 0 0 0 4.5 0C2.85 0 2 1.35 2 3a9.37 9.37 0 0 0 2.6 7A9.33 9.33 0 0 0 2 17c0 1.65.85 3 2.5 3a2.37 2.37 0 0 0 2.38-2h6.24a2.37 2.37 0 0 0 2.38 2c1.65 0 2.5-1.35 2.5-3a9.36 9.36 0 0 0-2.6-7A9.33 9.33 0 0 0 18 3zm-5 0a8.57 8.57 0 0 1-.06 1H7.06A8.56 8.56 0 0 1 7 3h6zm-.75 3h-4.5a3.76 3.76 0 0 1-.48-1h5.46a3.76 3.76 0 0 1-.48 1zm-1 1a10.14 10.14 0 0 1-1.25.76A10.14 10.14 0 0 1 8.74 7h2.52zM4 3a1 1 0 0 1 2 0c0 3.04 1.2 4.3 2.93 5.3a20.86 20.86 0 0 0-1.98 1.1C5.3 8.2 4 6.4 4 3zm2 14a1 1 0 0 1-2 0c0-5.12 2.95-6.6 5.55-7.9C12.05 7.87 14 6.9 14 3a1 1 0 0 1 2 0c0 5.12-2.95 6.6-5.55 7.9C7.95 12.13 6 13.1 6 17zm1.75-3h4.5a3.76 3.76 0 0 1 .48 1H7.27a3.76 3.76 0 0 1 .48-1zm1-1a10.13 10.13 0 0 1 1.25-.76 10.14 10.14 0 0 1 1.26.76H8.74zM7 17a8.57 8.57 0 0 1 .06-1h5.88a8.56 8.56 0 0 1 .06 1H7zm9 0a1 1 0 0 1-2 0c0-3.04-1.2-4.3-2.93-5.3a20.84 20.84 0 0 0 1.98-1.1C14.7 11.8 16 13.6 16 17z"/>
	</symbol>

	<!-- Logic Gate -->
	<symbol id="icon-gate" viewBox="0 0 20 20">
		<path d="M19,9H17.5139C16.59,7.0686,13.8359,3,7,3H2A10.4282,10.4282,0,0,1,4.1,6H1A1,1,0,0,0,1,8H4.7788a9.3849,9.3849,0,0,1,0,4H1a1,1,0,0,0,0,2H4.0992A10.425,10.425,0,0,1,2,17H7.0065c6.831,0,9.5837-4.0686,10.5074-6H19A1,1,0,0,0,19,9ZM7,10.02A11.4938,11.4938,0,0,0,5.8516,5H7c0.2034,0,.3917.0141,0.5864,0.0223a9.1023,9.1023,0,0,1,1.4175,4.9885A9.1263,9.1263,0,0,1,7.586,14.978C7.3935,14.986,7.2075,15,7.0065,15H5.85A11.5189,11.5189,0,0,0,7,10.02Zm1.8047,4.8538a10.297,10.297,0,0,0,1.1992-4.8614A10.266,10.266,0,0,0,8.8056,5.1271a8.5815,8.5815,0,0,1,6.9764,4.8737A8.5781,8.5781,0,0,1,8.8047,14.8736Z"/>
	</symbol>

	<!-- Atom -->
	<symbol id="icon-atom" viewBox="0 0 20 20">
		<path d="M17.7 5a3.37 3.37 0 0 0-3.15-1.55 8.87 8.87 0 0 0-1.85.23C12 1.52 10.84 0 9.04 0S6.08 1.52 5.38 3.68a8.87 8.87 0 0 0-1.84-.23A3.37 3.37 0 0 0 .38 5c-.56.98-.78 2.65 1.36 5C-.4 12.35-.18 14.02.38 15a3.37 3.37 0 0 0 3.16 1.55 8.87 8.87 0 0 0 1.84-.23C6.08 18.48 7.25 20 9.04 20s2.97-1.52 3.66-3.68a8.87 8.87 0 0 0 1.85.23A3.37 3.37 0 0 0 17.7 15c.57-.98.8-2.65-1.35-5 2.14-2.35 1.92-4.02 1.35-5zm-6.3 2.34l-.6-.37-.62-.34q.54-.24 1.06-.43c.07.36.12.75.16 1.14zM9.04 2c.82 0 1.55 1.26 2 3.2a21.6 21.6 0 0 0-2 .85 21.6 21.6 0 0 0-2-.85c.46-1.94 1.2-3.2 2-3.2zm-2.2 4.2l1.07.43c-.2.1-.4.22-.6.34l-.6.37.18-1.14zm-3.3 8.35A1.55 1.55 0 0 1 2.12 14c-.4-.7.32-1.97 1.78-3.34a21.55 21.55 0 0 0 1.72 1.3c.06.72.15 1.45.27 2.17a8.55 8.55 0 0 1-2.4.42zm2.02-3.85c-.32-.23-.63-.47-.9-.7.27-.23.58-.47.9-.7l-.02.7.02.7zm.06-2.67a21.53 21.53 0 0 0-1.72 1.3C2.44 7.98 1.7 6.73 2.12 6a1.55 1.55 0 0 1 1.42-.55 8.55 8.55 0 0 1 2.35.42c-.17.72-.26 1.45-.3 2.16zm1.07 4.63c.2.12.34.25.6.37l.6.34q-.58.24-1.1.43l-.15-1.14zM9 18c-.8 0-1.54-1.26-2-3.2a21.6 21.6 0 0 0 2-.85 21.6 21.6 0 0 0 2 .85c-.45 1.94-1.18 3.2-2 3.2zm2.2-4.2q-.52-.2-1.06-.43c.2-.1.4-.22.6-.34l.62-.37c-.05.4-.1.78-.17 1.14zm.26-2.38l-1.2.75s-.85.46-1.27.67c-.4-.2-.84-.43-1.26-.67s-.83-.5-1.2-.75c-.04-.46-.06-.93-.06-1.42s0-.96.04-1.42c.37-.25.77-.5 1.2-.75S8.6 7.37 9 7.16c.43.2.84.43 1.26.67s.82.5 1.2.75c.03.46.04.93.04 1.42s0 .96-.04 1.42zm4.5 2.58a1.55 1.55 0 0 1-1.42.55 8.55 8.55 0 0 1-2.35-.42c.1-.72.2-1.45.23-2.16a21.55 21.55 0 0 0 1.73-1.3c1.44 1.36 2.17 2.62 1.76 3.33zm-3.44-4.7c.32.23.63.47.9.7-.27.23-.58.47-.9.7V9.3zm1.66.04a21.54 21.54 0 0 0-1.75-1.3c-.05-.72-.14-1.45-.26-2.17a8.55 8.55 0 0 1 2.34-.42 1.55 1.55 0 0 1 1.45.55c.4.7-.32 1.97-1.78 3.34z"/>
		<circle cx="9" cy="10" r="1"/>
	</symbol>

	<!-- Compass -->
	<symbol id="icon-compass" viewBox="0 0 20 20">
		<path d="M17.31,14.9119A2.9985,2.9985,0,0,0,15,10H14.8542l-0.3834-.7667A4.9726,4.9726,0,0,0,13,3.0149V3A3,3,0,0,0,7,3V3.0149A4.9725,4.9725,0,0,0,5.5292,9.2333L5.1458,10H5a2.9985,2.9985,0,0,0-2.31,4.9119l-0.3732.7464a3,3,0,0,0,5.3657,2.6854L8.8542,16h2.2915l1.1708,2.3417A2.9868,2.9868,0,0,0,15.001,20a3,3,0,0,0,2.6824-4.3417ZM15,12a0.9994,0.9994,0,0,1,1,1,0.9821,0.9821,0,0,1-.3848.7693L14.739,12H15ZM4.999,18a1,1,0,0,1-.8936-1.4473L4.8818,15H7.1182L5.8945,17.4473A1,1,0,0,1,4.999,18ZM10,14H5a1,1,0,0,1,0-2h5.2747l0.9905,2H10Zm5.4473,3.8945a1,1,0,0,1-1.3418-.4473L12.3818,14H12.3813l-1.39-2.8066-0.01.005L10.3635,9.9633A2.9511,2.9511,0,0,1,10,10a2.9511,2.9511,0,0,1-.3635-0.0367L9.1182,11H6.8818L7.8436,9.0766A2.98,2.98,0,0,1,9,4.1843V3a1,1,0,0,1,2,0V4.1843a2.98,2.98,0,0,1,1.1564,4.8923L13.6182,12h0.0047l1.8234,3.6816,0.01-.005,0.438,0.8761A1,1,0,0,1,15.4473,17.8945Z"/>
		<circle cx="10" cy="7" r="1"/>
	</symbol>

	<!-- Close -->
	<symbol id="icon-close" viewBox="0 0 20 20">
<path d="M13,6a1,1,0,0,1,.707,1.707L11.4141,10l2.293,2.293A1,1,0,1,1,12.293,13.707L10,11.4141,7.707,13.707A1,1,0,0,1,6.293,12.293L8.5859,10,6.293,7.707A1,1,0,1,1,7.707,6.293L10,8.5859l2.293-2.293A0.9968,0.9968,0,0,1,13,6m0-2a2.98,2.98,0,0,0-2.1213.8788L10,5.7575,9.1212,4.8788A3,3,0,1,0,4.8788,9.1212L5.7575,10l-0.8788.8788a3,3,0,1,0,4.2425,4.2425L10,14.2425l0.8788,0.8788a3,3,0,1,0,4.2425-4.2425L14.2425,10l0.8788-.8788A3,3,0,0,0,13,4h0Z"/>	</symbol>
</svg>